<?xml version="1.0" encoding="utf-8"?>
<!-- Generator: Adobe Illustrator 22.1.0, SVG Export Plug-In . SVG Version: 6.00 Build 0)  -->
<svg version="1.1" id="Layer_1" xmlns="http://www.w3.org/2000/svg" xmlns:xlink="http://www.w3.org/1999/xlink" x="0px" y="0px"
	 viewBox="0 0 1190.5 420.9" style="enable-background:new 0 0 1190.5 420.9;" xml:space="preserve">
<style type="text/css">
	.st0{fill:#FFFFFF;}
</style>
<g>
	<g>
		<path class="st0" d="M638.8,282.8c0,57-40.2,85.5-120.7,85.5c-20.1,0-43.4-2-69.9-6l2.5-18.1c25.8,4,48.3,6,67.4,6
			c62.4,0,96.3-18.4,101.6-55.3c0.7-4.7,1-8.7,1-12.1c0-17.8-8.6-32.7-25.7-44.8c-10.1-7-28.1-15.5-54.1-25.4
			c-26-9.9-44.2-18.2-54.6-24.9c-16.4-10.7-25.8-24-28.2-39.7h-0.5c0-11.7,0.3-19.9,1-24.7c6.7-46.6,43.3-69.9,109.7-69.9
			c15.4,0,34.9,1.8,58.4,5.5l-2.5,17.6l-8.6-1c-22.8-2.7-38.6-4-47.3-4c-61.7,0-92.6,22.5-92.6,67.4c0,13.1,7.2,24.5,21.6,34.2
			c8.7,6,25,13.6,48.8,22.6c30.5,11.7,51.6,22,63.4,30.7C629,241.2,638.8,260,638.8,282.8z"/>
		<path class="st0" d="M887.3,249.6c0,32.2-11.2,60-33.5,83.3c-22.3,23.3-49.6,35-81.7,35c-31.9,0-58.9-11.7-81.3-35
			c-22.3-23.3-33.4-51.1-33.4-83.3c0-31.9,11.2-59.4,33.4-82.8c22.3-23.3,49.4-35,81.3-35c31.8,0,59,11.7,81.5,35
			C876,190.1,887.3,217.7,887.3,249.6z M869.2,249.6c0-27.2-9.4-50.6-28.2-70.2c-18.8-19.6-41.8-29.4-68.9-29.4
			c-26.8,0-49.6,9.9-68.4,29.7c-18.8,19.8-28.2,43.1-28.2,69.9c0,27.2,9.4,50.6,28.2,70.4c18.8,19.8,41.6,29.7,68.4,29.7
			c27.2,0,50.1-9.9,68.9-29.7C859.8,300.2,869.2,276.7,869.2,249.6z"/>
		<path class="st0" d="M1103.1,367.8H1085v-24.2c-23.8,16.4-47.5,24.7-70.9,24.7c-11.7,0-23.1-2.3-34.2-7
			c-31.9-13.4-52.6-42.3-62.4-86.5c-3.4-14.8-5-30.2-5-46.3c0-30.2,6.2-63.2,18.6-99.1l17.1,5.5c-12.1,35.2-18.1,66.7-18.1,94.6
			c0,14.4,1.5,28.2,4.5,41.2c8.4,37.9,25.8,62.6,52.3,74c9.1,4,18.4,6,28.2,6c20.1,0,43.4-9.6,69.9-28.7V131.8h18.1V367.8z"/>
		<path class="st0" d="M1163.4,367.8h-18.1V55.9h18.1V367.8z"/>
	</g>
	<g>
		<g>
			<polygon class="st0" points="413.8,362.1 413.8,357.1 36.7,357.1 222.8,62.7 396.3,337 74.8,337 222.8,103 358.1,316.8 
				113,316.8 222.8,143.2 319.9,296.7 151.2,296.7 222.8,183.5 281.7,276.6 189.4,276.6 222.8,223.8 243.5,256.5 222.8,256.5 
				222.8,261.5 253.1,261.5 222.8,213.7 179.9,281.6 291.3,281.6 222.8,173.4 141.7,301.7 329.5,301.7 222.8,133.2 103.5,321.9 
				367.7,321.9 222.8,92.9 65.3,342 405.9,342 222.8,52.7 27.1,362.1 			"/>
		</g>
	</g>
</g>
</svg>
